# xmcd
#
# Track frame offsets:
#	150
#	13852
#	27943
#	38783
#	54044
#	67704
#	78815
#	91845
#	104764
#	119884
#	133166
#	145393
#	157208
#	171221
#	185058
#	196443
#	208672
#	222475
#	236770
#	249420
#	262948
#	275879
#	290415
#	302276
#	315667
#
# Disc length: 4382 seconds
#
# Revision: 0
# Processed by: cddbd v1.4PL0 Copyright (c) Steve Scherf et al.
# Submitted via: dBpowerAMP V4.0
#
DISCID=77111c19
DTITLE=Jazz Gillum - Key To The Highway 1935-1942
DYEAR=1995
DGENRE=General Blues
TTITLE0=Crazy About You
TTITLE1=Sarah Jane
TTITLE2=Don't You Scandalize My Name
TTITLE3=My Old Lizzie
TTITLE4=Reefer Head Woman
TTITLE5=Gillum's Windy Blues
TTITLE6=Sweet, Sweet Woman
TTITLE7=Boar Hog Blues
TTITLE8=Worried And Bothered
TTITLE9=Let Her Go
TTITLE10=Stavin' Chain
TTITLE11=She Won't Treat Me Kind
TTITLE12=Against My Will
TTITLE13=Got To Reap What You So
TTITLE14=It Sure Had A Kick
TTITLE15=Key To The Highway
TTITLE16=Muddy Pond Blues
TTITLE17=Riley Springs Blues
TTITLE18=It Looks Bad For You
TTITLE19=I Go Somebody Else
TTITLE20=You Are Doing Me Wrong
TTITLE21=Down South Blues
TTITLE22=From Now On
TTITLE23=I Couldn't Help It
TTITLE24=I'm Gonna Leave You On The Outskirts Of Town
EXTD=submitted by william hale
EXTT0=
EXTT1=
EXTT2=
EXTT3=
EXTT4=
EXTT5=
EXTT6=
EXTT7=
EXTT8=
EXTT9=
EXTT10=
EXTT11=
EXTT12=
EXTT13=
EXTT14=
EXTT15=
EXTT16=
EXTT17=
EXTT18=
EXTT19=
EXTT20=
EXTT21=
EXTT22=
EXTT23=
EXTT24=
PLAYORDER=
